<svg width="64" height="64" viewBox="0 0 64 64" fill="none" xmlns="http://www.w3.org/2000/svg">
<rect width="64" height="64" rx="32" fill="#F1E5D4"/>
<path fill-rule="evenodd" clip-rule="evenodd" d="M25.6526 19.9746V16.7579C25.6526 15.2347 26.8873 14 28.4105 14H38.063C39.5862 14 40.8209 15.2347 40.8209 16.7579V19.9746H45.8193C48.3579 19.9746 50.416 22.0327 50.416 24.5713V40.1992C50.4159 42.7377 48.3578 44.7959 45.8193 44.7959H27.8125L26.2754 47.2559C25.2207 48.9433 23.4977 49.5816 21.8782 49.392H19.6772C17.6463 49.392 16 47.7456 16 45.7148V23.6518C16 21.6209 17.6463 19.9746 19.6772 19.9746H21.9754L21.9384 19.9954C22.0831 19.9816 22.2297 19.9746 22.3779 19.9746H25.6526ZM29.5443 19.9746H37.4195V18.1368C37.4195 17.1214 36.5964 16.2982 35.5809 16.2982H31.3828C30.3674 16.2982 29.5443 17.1214 29.5443 18.1368V19.9746ZM47.6582 40.1992V24.5713C47.6582 23.6194 46.9348 22.8365 46.0078 22.7422L45.8193 22.7324H22.3779L22.1895 22.7422C21.2624 22.8364 20.5391 23.6194 20.5391 24.5713V44.8193C20.5391 46.6088 22.8088 47.3161 23.8408 45.9346L23.9365 45.7939L25.7441 42.9014C26.0592 42.3974 26.5972 42.0788 27.1855 42.041L27.3037 42.0371H45.8193L46.0078 42.0283C46.8731 41.9403 47.5607 41.2521 47.6484 40.3867L47.6582 40.1992ZM32.4897 34.4544C32.4897 35.4698 31.6666 36.293 30.6512 36.293C29.6357 36.293 28.8126 35.4698 28.8126 34.4544L28.8126 29.3983C28.8126 28.3829 29.6357 27.5597 30.6512 27.5597C31.6666 27.5597 32.4897 28.3829 32.4897 29.3983V34.4544ZM41.2232 36.293C42.2386 36.293 43.0618 35.4698 43.0618 34.4544V29.3983C43.0618 28.3829 42.2386 27.5597 41.2232 27.5597C40.2078 27.5597 39.3846 28.3829 39.3846 29.3983V34.4544C39.3846 35.4698 40.2078 36.293 41.2232 36.293Z" fill="#2E2E3A"/>
<path d="M25.6526 19.9746V20.2044H25.8824V19.9746H25.6526ZM40.8209 19.9746H40.5911V20.2044H40.8209V19.9746ZM50.416 40.1992L50.6458 40.1992V40.1992H50.416ZM27.8125 44.7959V44.5661H27.6851L27.6176 44.6741L27.8125 44.7959ZM26.2754 47.2559L26.4703 47.3777L26.4703 47.3776L26.2754 47.2559ZM21.8782 49.392L21.9049 49.1637L21.8916 49.1621H21.8782V49.392ZM21.9754 19.9746L22.0878 20.1751L22.8551 19.7448H21.9754V19.9746ZM21.9384 19.9954L21.826 19.7949L21.9601 20.2241L21.9384 19.9954ZM37.4195 19.9746V20.2044H37.6493V19.9746H37.4195ZM29.5443 19.9746H29.3144V20.2044H29.5443V19.9746ZM47.6582 40.1992L47.888 40.2112V40.1992H47.6582ZM46.0078 22.7422L46.0311 22.5133L46.0197 22.5127L46.0078 22.7422ZM45.8193 22.7324L45.8312 22.5026H45.8193V22.7324ZM22.3779 22.7324V22.5023L22.366 22.5029L22.3779 22.7324ZM22.1895 22.7422L22.1775 22.5124L22.1662 22.5135L22.1895 22.7422ZM23.8408 45.9346L24.0251 46.0722L24.0308 46.0639L23.8408 45.9346ZM23.9365 45.7939L24.1267 45.9233L24.1314 45.9157L23.9365 45.7939ZM25.7441 42.9014L25.5493 42.7796L25.5492 42.7796L25.7441 42.9014ZM27.1855 42.041L27.1779 41.8112L27.1708 41.8117L27.1855 42.041ZM27.3037 42.0371V41.8072L27.2961 41.8074L27.3037 42.0371ZM45.8193 42.0371V42.2672L45.83 42.2667L45.8193 42.0371ZM46.0078 42.0283L46.0185 42.2582L46.0311 42.257L46.0078 42.0283ZM47.6484 40.3867L47.8774 40.4099L47.8779 40.3987L47.6484 40.3867ZM28.8126 34.4544L28.5828 34.4544V34.4544H28.8126ZM28.8126 29.3983L29.0424 29.3983V29.3983H28.8126ZM25.6526 16.7579H25.4228V19.9746H25.6526H25.8824V16.7579H25.6526ZM28.4105 14V13.7702C26.7604 13.7702 25.4228 15.1078 25.4228 16.7579H25.6526H25.8824C25.8824 15.3617 27.0143 14.2298 28.4105 14.2298V14ZM38.063 14V13.7702H28.4105V14V14.2298H38.063V14ZM40.8209 16.7579H41.0507C41.0507 15.1078 39.7131 13.7702 38.063 13.7702V14V14.2298C39.4592 14.2298 40.5911 15.3617 40.5911 16.7579H40.8209ZM40.8209 19.9746H41.0507V16.7579H40.8209H40.5911V19.9746H40.8209ZM45.8193 19.9746V19.7448H40.8209V19.9746V20.2044H45.8193V19.9746ZM50.416 24.5713H50.6458C50.6458 21.9058 48.4848 19.7448 45.8193 19.7448V19.9746V20.2044C48.231 20.2044 50.1862 22.1597 50.1862 24.5713H50.416ZM50.416 40.1992H50.6458V24.5713H50.416H50.1862V40.1992H50.416ZM45.8193 44.7959V45.0257C48.4847 45.0257 50.6457 42.8646 50.6458 40.1992L50.416 40.1992L50.1862 40.1992C50.1861 42.6107 48.2309 44.5661 45.8193 44.5661V44.7959ZM27.8125 44.7959V45.0257H45.8193V44.7959V44.5661H27.8125V44.7959ZM26.2754 47.2559L26.4703 47.3776L28.0074 44.9177L27.8125 44.7959L27.6176 44.6741L26.0805 47.1341L26.2754 47.2559ZM21.8782 49.392L21.8515 49.6202C23.551 49.8192 25.3643 49.1472 26.4703 47.3777L26.2754 47.2559L26.0805 47.1341C25.0771 48.7395 23.4443 49.3439 21.9049 49.1637L21.8782 49.392ZM19.6772 49.392V49.6218H21.8782V49.392V49.1621H19.6772V49.392ZM16 45.7148H15.7702C15.7702 47.8726 17.5194 49.6218 19.6772 49.6218V49.392V49.1621C17.7733 49.1621 16.2298 47.6187 16.2298 45.7148H16ZM16 23.6518H15.7702V45.7148H16H16.2298V23.6518H16ZM19.6772 19.9746V19.7448C17.5194 19.7448 15.7702 21.494 15.7702 23.6518H16H16.2298C16.2298 21.7479 17.7733 20.2044 19.6772 20.2044V19.9746ZM21.9754 19.9746V19.7448H19.6772V19.9746V20.2044H21.9754V19.9746ZM21.9384 19.9954L22.0508 20.1958L22.0878 20.1751L21.9754 19.9746L21.863 19.7742L21.826 19.7949L21.9384 19.9954ZM22.3779 19.9746V19.7448C22.2224 19.7448 22.0686 19.7521 21.9167 19.7666L21.9384 19.9954L21.9601 20.2241C22.0976 20.2111 22.2369 20.2044 22.3779 20.2044V19.9746ZM25.6526 19.9746V19.7448H22.3779V19.9746V20.2044H25.6526V19.9746ZM37.4195 19.9746V19.7448H29.5443V19.9746V20.2044H37.4195V19.9746ZM37.4195 18.1368H37.1897V19.9746H37.4195H37.6493V18.1368H37.4195ZM35.5809 16.2982V16.5281C36.4694 16.5281 37.1897 17.2483 37.1897 18.1368H37.4195H37.6493C37.6493 16.9945 36.7233 16.0684 35.5809 16.0684V16.2982ZM31.3828 16.2982V16.5281H35.5809V16.2982V16.0684H31.3828V16.2982ZM29.5443 18.1368H29.7741C29.7741 17.2483 30.4943 16.5281 31.3828 16.5281V16.2982V16.0684C30.2405 16.0684 29.3144 16.9945 29.3144 18.1368H29.5443ZM29.5443 19.9746H29.7741V18.1368H29.5443H29.3144V19.9746H29.5443ZM47.6582 24.5713H47.4284V40.1992H47.6582H47.888V24.5713H47.6582ZM46.0078 22.7422L45.9846 22.9708C46.7954 23.0533 47.4284 23.7385 47.4284 24.5713H47.6582H47.888C47.888 23.5003 47.0742 22.6196 46.0311 22.5135L46.0078 22.7422ZM45.8193 22.7324L45.8074 22.9619L45.9959 22.9717L46.0078 22.7422L46.0197 22.5127L45.8312 22.5029L45.8193 22.7324ZM22.3779 22.7324V22.9622H45.8193V22.7324V22.5026H22.3779V22.7324ZM22.1895 22.7422L22.2013 22.9717L22.3898 22.9619L22.3779 22.7324L22.366 22.5029L22.1776 22.5127L22.1895 22.7422ZM20.5391 24.5713H20.7689C20.7689 23.7385 21.4018 23.0533 22.2127 22.9708L22.1895 22.7422L22.1662 22.5135C21.1231 22.6196 20.3092 23.5003 20.3092 24.5713H20.5391ZM20.5391 44.8193H20.7689V24.5713H20.5391H20.3092V44.8193H20.5391ZM23.8408 45.9346L23.6567 45.797C22.7543 47.005 20.7689 46.3832 20.7689 44.8193H20.5391H20.3092C20.3092 46.8344 22.8633 47.6271 24.0249 46.0721L23.8408 45.9346ZM23.9365 45.7939L23.7465 45.6646L23.6508 45.8053L23.8408 45.9346L24.0308 46.0639L24.1265 45.9232L23.9365 45.7939ZM25.7441 42.9014L25.5492 42.7796L23.7416 45.6722L23.9365 45.7939L24.1314 45.9157L25.939 43.0232L25.7441 42.9014ZM27.1855 42.041L27.1708 41.8117C26.5089 41.8542 25.9037 42.2125 25.5493 42.7796L25.7441 42.9014L25.939 43.0232C26.2146 42.5822 26.6854 42.3034 27.2003 42.2704L27.1855 42.041ZM27.3037 42.0371L27.2961 41.8074L27.178 41.8113L27.1855 42.041L27.1931 42.2707L27.3113 42.2668L27.3037 42.0371ZM45.8193 42.0371V41.8073H27.3037V42.0371V42.2669H45.8193V42.0371ZM46.0078 42.0283L45.9971 41.7987L45.8086 41.8075L45.8193 42.0371L45.83 42.2667L46.0185 42.2579L46.0078 42.0283ZM47.6484 40.3867L47.4198 40.3635C47.343 41.1204 46.7412 41.7227 45.9846 41.7997L46.0078 42.0283L46.0311 42.257C47.005 42.1579 47.7783 41.3837 47.8771 40.4099L47.6484 40.3867ZM47.6582 40.1992L47.4287 40.1873L47.4189 40.3748L47.6484 40.3867L47.8779 40.3987L47.8877 40.2112L47.6582 40.1992ZM30.6512 36.293V36.5228C31.7935 36.5228 32.7196 35.5967 32.7196 34.4544H32.4897H32.2599C32.2599 35.3429 31.5397 36.0631 30.6512 36.0631V36.293ZM28.8126 34.4544H28.5828C28.5828 35.5967 29.5088 36.5228 30.6512 36.5228V36.293V36.0631C29.7627 36.0631 29.0424 35.3429 29.0424 34.4544H28.8126ZM28.8126 29.3983L28.5828 29.3983L28.5828 34.4544L28.8126 34.4544L29.0424 34.4544L29.0424 29.3983L28.8126 29.3983ZM30.6512 27.5597V27.3299C29.5088 27.3299 28.5828 28.2559 28.5828 29.3983H28.8126H29.0424C29.0424 28.5098 29.7627 27.7895 30.6512 27.7895V27.5597ZM32.4897 29.3983H32.7196C32.7196 28.2559 31.7935 27.3299 30.6512 27.3299V27.5597V27.7895C31.5397 27.7895 32.2599 28.5098 32.2599 29.3983H32.4897ZM32.4897 34.4544H32.7196V29.3983H32.4897H32.2599V34.4544H32.4897ZM43.0618 34.4544H42.8319C42.8319 35.3429 42.1117 36.0631 41.2232 36.0631V36.293V36.5228C42.3655 36.5228 43.2916 35.5967 43.2916 34.4544H43.0618ZM43.0618 29.3983H42.8319V34.4544H43.0618H43.2916V29.3983H43.0618ZM41.2232 27.5597V27.7895C42.1117 27.7895 42.8319 28.5098 42.8319 29.3983H43.0618H43.2916C43.2916 28.2559 42.3655 27.3299 41.2232 27.3299V27.5597ZM39.3846 29.3983H39.6144C39.6144 28.5098 40.3347 27.7895 41.2232 27.7895V27.5597V27.3299C40.0808 27.3299 39.1548 28.2559 39.1548 29.3983H39.3846ZM39.3846 34.4544H39.6144V29.3983H39.3846H39.1548V34.4544H39.3846ZM41.2232 36.293V36.0631C40.3347 36.0631 39.6144 35.3429 39.6144 34.4544H39.3846H39.1548C39.1548 35.5967 40.0808 36.5228 41.2232 36.5228V36.293Z" fill="#2E2E3A"/>
</svg>
